<?xml version="1.0" standalone="no"?>
<!DOCTYPE svg PUBLIC "-//W3C//DTD SVG 20010904//EN"
 "http://www.w3.org/TR/2001/REC-SVG-20010904/DTD/svg10.dtd">
<svg version="1.0" xmlns="http://www.w3.org/2000/svg"
 width="371.000000pt" height="371.000000pt" viewBox="0 0 371.000000 371.000000"
 preserveAspectRatio="xMidYMid meet">
<metadata>
Created by potrace 1.14, written by Peter Selinger 2001-2017
</metadata>
<g transform="translate(0.000000,371.000000) scale(0.100000,-0.100000)"
fill="#000000" stroke="none">
<path d="M1509 3195 c-3 -2 -24 -7 -47 -9 -115 -15 -268 -73 -382 -145 -57
-36 -198 -171 -242 -231 -167 -232 -266 -602 -260 -975 6 -402 53 -626 182
-872 39 -72 50 -104 50 -139 0 -56 1 -54 -104 -194 -94 -125 -106 -161 -62
-181 40 -19 70 -3 173 87 151 133 168 136 315 53 127 -72 272 -120 413 -135
33 -3 63 -8 68 -11 18 -11 360 -3 452 11 17 3 50 8 75 11 68 10 156 33 250 67
355 128 578 361 667 697 23 85 26 116 27 276 1 317 -24 452 -131 685 -50 107
-64 273 -30 341 10 20 54 76 97 124 94 104 115 153 108 248 -16 197 -210 339
-390 285 -21 -6 -73 -40 -116 -76 -130 -109 -159 -111 -367 -29 -98 38 -276
92 -340 103 -49 8 -399 16 -406 9z m311 -210 c221 -37 348 -262 271 -481 -35
-98 -18 -73 -466 -664 -131 -173 -309 -407 -394 -520 -170 -224 -172 -227
-210 -252 -35 -24 -65 -22 -96 5 -34 29 -35 79 -2 172 13 39 104 300 202 580
97 281 181 519 185 530 5 11 24 65 44 120 19 55 53 154 76 220 52 150 80 198
137 238 80 57 145 71 253 52z m867 -820 c152 -64 242 -274 193 -455 -20 -74
-76 -164 -140 -224 -60 -55 -149 -103 -510 -274 -47 -22 -137 -64 -200 -95
-63 -30 -158 -75 -210 -100 -52 -25 -162 -77 -245 -117 -199 -95 -233 -108
-279 -105 -63 5 -82 49 -52 118 16 35 33 55 164 193 194 202 422 442 462 484
84 90 366 385 420 440 135 137 277 185 397 135z"/>
</g>
</svg>
