<svg id="Layer_1" data-name="Layer 1" xmlns="http://www.w3.org/2000/svg" viewBox="0 0 1920 116"><defs><style>.cls-1{fill:#191919;}</style></defs><path id="wave-haikei" class="cls-1" d="M0,19l16-2.3c16-2.4,48-7,80-6.7s64,5.7,96,11.7,64,12.6,96,16.8a719.87,719.87,0,0,0,96,5.7c32-.2,64-2.2,96-9.7S544,14,576,10.8s64,3.5,96,11.9,64,18.3,96,18,64-11,96-13.5,64,3.1,96,6.1,64,3.4,96-.8,64-12.8,96-18,64-6.8,96-8,64-1.8,96,1.8,64,11.7,96,11,64-10,96-10.8,64,6.8,96,7.3,64-6.1,96-5,64,10.2,96,9.7S1888,10,1904,5l16-5V116H0Z"/></svg>