<svg xmlns="http://www.w3.org/2000/svg" width="180.84" height="158.432" viewBox="0 0 180.84 158.432">
  <path id="blob-9" d="M45.036-59.659C55.957-49.51,64.783-39.471,70.961-28.218c6.068,11.253,9.6,23.939,9.157,36.3-.331,12.356-4.523,24.6-9.819,37.4C65.114,58.273,58.715,71.732,48.235,82.1,37.644,92.582,22.861,99.974,7.747,100.415A55.185,55.185,0,0,1-32.74,83.867C-43,73.166-47.964,58.383-56.459,45.034c-8.495-13.238-20.63-25.043-21.733-37.4C-79.3-4.83-69.587-17.848-60.1-29.321A271.1,271.1,0,0,1-29.761-60.652C-18.509-70.581-5.16-80.62,7.968-80.4S34.114-69.809,45.036-59.659Z" transform="translate(100.437 78.278) rotate(90)" fill="#fff"/>
</svg>
