<svg xmlns="http://www.w3.org/2000/svg" width="179.045" height="156.86" viewBox="0 0 179.045 156.86">
  <path id="blob-9" d="M43.812-59.865C54.625-49.817,63.363-39.877,69.48-28.736c6.007,11.141,9.5,23.7,9.066,35.935-.328,12.233-4.478,24.357-9.721,37.027-5.134,12.67-11.469,26-21.845,36.263C36.494,90.865,21.857,98.183,6.894,98.62A54.637,54.637,0,0,1-33.192,82.237C-43.35,71.642-48.265,57.006-56.675,43.789-65.086,30.682-77.1,19-78.193,6.762c-1.092-12.342,8.52-25.231,17.913-36.59a268.408,268.408,0,0,1,30.037-31.02C-19.1-70.679-5.886-80.618,7.112-80.4S33-69.914,43.812-59.865Z" transform="translate(80.403 78.582) rotate(-90)" fill="#fff"/>
</svg>
