<svg xmlns="http://www.w3.org/2000/svg" xmlns:xlink="http://www.w3.org/1999/xlink" width="2987" height="524" viewBox="0 0 2987 524">
  <defs>
    <clipPath id="clip-path">
      <rect id="Rectangle_168" data-name="Rectangle 168" width="2987" height="524" transform="translate(-11067 17829)" stroke="#707070" stroke-width="1" opacity="0.277"/>
    </clipPath>
  </defs>
  <g id="Mask_Group_10" data-name="Mask Group 10" transform="translate(11067 -17829)" clip-path="url(#clip-path)">
    <g id="Group_169" data-name="Group 169" transform="translate(-10617.091 14091)">
      <path id="blob-9" d="M1670.42,360.144c154.879,215.55,280.035,428.757,367.643,667.737,86.045,238.979,136.107,508.417,129.849,770.825-4.693,262.409-64.142,522.475-139.235,794.255-73.529,271.78-164.266,557.618-312.888,777.854-150.186,222.579-359.821,379.556-574.15,388.928-212.764,9.372-430.221-126.518-574.149-351.44C422,3181.038,351.6,2867.084,231.136,2583.59c-120.462-281.152-292.55-531.846-308.195-794.255C-92.7,1524.583,44.967,1248.117,179.509,1004.452,315.615,760.786,448.593,549.922,609.73,339.058,769.3,128.194,958.6-85.013,1144.768-80.327S1515.541,144.594,1670.42,360.144Z" transform="translate(3651.168 4847.421) rotate(118)" fill="#fff"/>
    </g>
  </g>
</svg>
