<svg id="Layer_1" data-name="Layer 1" xmlns="http://www.w3.org/2000/svg" viewBox="0 0 430 490"><defs><style>.cls-1{fill:#fff;}</style></defs><path id="blob-9" class="cls-1" d="M333.67,57.49c29.39,27.32,53.14,54.33,69.77,84.61,16.33,30.29,25.83,64.43,24.64,97.68-.89,33.25-12.17,66.2-26.42,100.64-14,34.44-31.18,70.66-59.38,98.57-28.5,28.2-68.28,48.1-109,49.28-40.37,1.19-81.64-16-108.95-44.53-27.61-28.8-41-68.58-63.83-104.5C37.68,303.61,5,271.85,2.05,238.6c-3-33.55,23.16-68.58,48.69-99.46,25.83-30.88,51.06-57.6,81.64-84.32C162.67,28.1,198.59,1.08,233.92,1.68S304.28,30.18,333.67,57.49Z"/></svg>