<svg xmlns="http://www.w3.org/2000/svg" width="239.113" height="272.932" viewBox="0 0 239.113 272.932">
  <g id="menu" transform="translate(-1790.488 -45.894)">
    <path id="blob-9" d="M107.832-49.1c16.483,15.318,29.8,30.47,39.127,47.453,9.157,16.983,14.485,36.131,13.819,54.779-.5,18.648-6.826,37.13-14.818,56.444-7.825,19.314-17.482,39.627-33.3,55.278C96.677,180.675,74.366,191.83,51.555,192.5A83.287,83.287,0,0,1-9.55,167.521c-15.484-16.151-22.977-38.462-35.8-58.608-12.82-19.98-31.135-37.8-32.8-56.444C-79.813,33.655-65.161,14.008-50.842-3.308A409.152,409.152,0,0,1-5.055-50.594C11.928-65.579,32.075-80.731,51.888-80.4S91.349-64.414,107.832-49.1Z" transform="translate(1868.766 126.297)" fill="#f7f7f7" />
    <!-- <path id="Path_194" data-name="Path 194" d="M7.6,3.228H1.248v29.01H7.082V12.713l8.89,12.62h2.58l8.85-12.5V32.238h5.834V3.228H27.361L17.44,17Zm40.6,7.739c-6.072,0-10.239,4.524-10.239,10.6,0,6.31,4.564,11.033,10.239,11.033,4.286,0,7.1-1.27,9.286-5.04l-4.207-2.143a5.724,5.724,0,0,1-4.842,2.1,4.639,4.639,0,0,1-4.921-4.048h10.4c2.183,0,4.048-.437,4.048-3.175C57.958,14.34,53.672,10.967,48.2,10.967Zm.159,4.921a4.411,4.411,0,0,1,4.564,3.691H43.592A4.9,4.9,0,0,1,48.355,15.888Zm19.406,16.35V18.983c0-1.508,3.175-2.9,5.119-2.9a4.44,4.44,0,0,1,4.564,4.326V32.238h5.477v-12.5c0-5.6-4.564-8.771-9.286-8.771a8.111,8.111,0,0,0-6.905,3.056,7.065,7.065,0,0,0-1.945-2.857l-2.54.556V32.238ZM103.517,11.4V24.658c0,1.389-3.056,2.9-5,2.9a4.288,4.288,0,0,1-4.405-4.365V11.4H88.675V23.944a8.466,8.466,0,0,0,8.77,8.731c3.849,0,5.913-1.23,7.143-3.056a6.394,6.394,0,0,0,1.9,2.9l2.54-.6V11.4Z" transform="translate(1864.511 162.828)" fill="#fff" style="mix-blend-mode: difference;isolation: isolate"/> -->
  </g>
</svg>
