<svg id="Layer_1" data-name="Layer 1" xmlns="http://www.w3.org/2000/svg" viewBox="0 0 617 768"><defs><style>.cls-1{fill:#fff;}</style></defs><g id="Group_154" data-name="Group 154"><path id="blob-12" class="cls-1" d="M476.39,97.15c56.38,41.61,108.73,81.43,128.86,134.23,20.59,52.8,9,117.67,1.35,178.52C599.44,470.75,595.41,527.13,565,562c-30.88,34.45-88.6,47.43-137.81,83.22-48.77,36.24-88.59,94.86-140.5,114.54-51.45,20.14-114.54.9-165.54-33.55s-90.39-84.57-98-139.15S39.7,473.44,35.23,411.69-2.36,286,.33,223.33c3.13-62.64,42.06-123.94,97.54-166s128-64.88,194.63-55C359.17,12.59,420,55.54,476.39,97.15Z"/></g></svg>