<svg xmlns="http://www.w3.org/2000/svg" width="1923" height="535.441" viewBox="0 0 1923 535.441">
  <g id="Group_210" data-name="Group 210" transform="translate(18426 -5773.93)">
    <g id="pink_background" data-name="pink background" transform="translate(-18426 5773.93)">
      <rect id="Rectangle_164" data-name="Rectangle 164" width="1920" height="369.871" transform="translate(0 103.143)" fill="#f2c0ff"/>
      <path id="wave-haikei_1_" data-name="wave-haikei (1)" d="M0,504l16-2.3c16-2.4,48-7,80-6.7s64,5.7,96,11.7,64,12.6,96,16.8a719,719,0,0,0,96,5.7c32-.2,64-2.2,96-9.7s64-20.5,96-23.7c32-3.1,64,3.5,96,11.9,32,8.3,64,18.3,96,18,32-.4,64-11,96-13.5s64,3.1,96,6.1,64,3.4,96-.8,64-12.8,96-18,64-6.8,96-8,64-1.8,96,1.8c32,3.7,64,11.7,96,11,32-.6,64-10,96-10.8s64,6.8,96,7.3,64-6.1,96-5c32,1.2,64,10.2,96,9.7s64-10.5,80-15.5l16-5V601H0Z" transform="translate(0 -485)" fill="#f2c0ff"/>
    </g>
    <path id="wave-haikei_5_" data-name="wave-haikei (5)" d="M0,38.958l26.667,6.456c26.667,6.567,80,19.479,133.333,23.6s106.667-.779,160-6.456c53.333-5.788,106.667-12.466,160-9.35,53.333,3.228,106.667,16.14,160,17.253s106.667-9.572,160-9.016S906.667,73.8,960,80.364a873.932,873.932,0,0,0,160,4.23c53.333-3.339,106.667-11.131,160-10.908,53.333.111,106.667,8.348,160,6.122s106.667-14.915,160-16.14c53.333-1.336,106.667,8.682,160,9.461,53.333.668,106.667-7.792,133.333-12.133L1920,56.767V0H0Z" transform="translate(-18423 6222.943)" fill="#f2c0ff"/>
  </g>
</svg>
