<svg id="Page-1" xmlns="http://www.w3.org/2000/svg" width="86" height="31.25" viewBox="0 0 86 31.25">
  <g id="iPhone-7-Landingpage" transform="translate(0 0)">
    <g id="Footer-mobile" transform="translate(0 0)">
      <g id="Tuborgklammen-Hvid" transform="translate(0 0)">
        <g id="Group-9">
          <path id="Fill-7" d="M74.016,28.537l-3.61-10.774a10.188,10.188,0,0,0-1.3-2.332c-.715-.847-2.682-1.419-3.577-1.641-2.361-.586-9.659-2.246-9.659-2.246.65,0,20.1,1.728,20.1,1.728s3.512.138,4.618,2.557,2.146,5.541,2.146,5.541l1.626,4.818s-6.374-1.451-10.342,2.349ZM63.359,22.472a5.789,5.789,0,0,1-1.451.514,7.4,7.4,0,0,1-1.53.158,4.382,4.382,0,0,1-1.526-.257,3.489,3.489,0,0,1-1.205-.737,3.342,3.342,0,0,1-.792-1.162,4.235,4.235,0,0,1,0-3.046,3.341,3.341,0,0,1,.79-1.162,3.485,3.485,0,0,1,1.2-.737,4.356,4.356,0,0,1,1.521-.257,5.659,5.659,0,0,1,1.555.2,3.051,3.051,0,0,1,1.247.7l-1.093,1.187a2.182,2.182,0,0,0-.716-.495,2.563,2.563,0,0,0-.994-.168,2.314,2.314,0,0,0-.9.168,2.02,2.02,0,0,0-.691.47,2.059,2.059,0,0,0-.442.717,2.721,2.721,0,0,0,0,1.805,2.066,2.066,0,0,0,.442.712,2.015,2.015,0,0,0,.691.47,2.311,2.311,0,0,0,.9.168,2.865,2.865,0,0,0,.859-.114,2.029,2.029,0,0,0,.571-.232v-1.18H60.6V18.823h2.755Zm-9.064.463-1.471-2.741h-.76v2.741H50.5V15.991h2.728a4.842,4.842,0,0,1,1.019.09,2.418,2.418,0,0,1,.845.339,1.721,1.721,0,0,1,.577.649,2.2,2.2,0,0,1,.214,1.022,2.046,2.046,0,0,1-.388,1.26,1.73,1.73,0,0,1-1.133.642l1.789,2.941Zm-5.124-1.947a3.342,3.342,0,0,1-.79,1.162,3.483,3.483,0,0,1-1.2.737,4.624,4.624,0,0,1-3.042,0,3.481,3.481,0,0,1-1.2-.737,3.339,3.339,0,0,1-.79-1.162,4.237,4.237,0,0,1,0-3.046,3.341,3.341,0,0,1,.79-1.162,3.487,3.487,0,0,1,1.2-.737,4.626,4.626,0,0,1,3.042,0,3.489,3.489,0,0,1,1.2.737,3.343,3.343,0,0,1,.79,1.162,4.238,4.238,0,0,1,0,3.046Zm-8.086.955a1.873,1.873,0,0,1-.616.6,2.687,2.687,0,0,1-.85.311,4.545,4.545,0,0,1-.939.083H35.812V15.991h2.61a6.657,6.657,0,0,1,.919.051,2.52,2.52,0,0,1,.83.25,1.581,1.581,0,0,1,.6.536,1.641,1.641,0,0,1,.229.918,1.469,1.469,0,0,1-.345.983,1.852,1.852,0,0,1-.891.558v.02a1.778,1.778,0,0,1,.643.193,1.713,1.713,0,0,1,.493.366,1.568,1.568,0,0,1,.316.519,1.819,1.819,0,0,1,.111.633,1.676,1.676,0,0,1-.237.925Zm-6.743-1.677a3.366,3.366,0,0,1-.177,1.147,2.51,2.51,0,0,1-.556.91,2.56,2.56,0,0,1-.926.6,3.908,3.908,0,0,1-2.572,0,2.568,2.568,0,0,1-.929-.6,2.482,2.482,0,0,1-.545-.91,3.364,3.364,0,0,1-.172-1.147V15.991h1.561v4.216a1.7,1.7,0,0,0,.082.6,1.414,1.414,0,0,0,.282.48,1.306,1.306,0,0,0,.447.317,1.411,1.411,0,0,0,.569.114,1.384,1.384,0,0,0,.565-.114,1.342,1.342,0,0,0,.447-.317,1.4,1.4,0,0,0,.276-.48,1.7,1.7,0,0,0,.087-.6V15.991h1.561Zm-6.7-2.905h-2.02v5.574H24.058V17.361h-2.02V15.991h5.6ZM20.358,13.79c-.9.222-2.862.795-3.577,1.641a10.191,10.191,0,0,0-1.3,2.332L11.87,28.537C7.9,24.737,1.528,26.188,1.528,26.188L3.155,21.37S4.2,18.247,5.3,15.829s4.618-2.557,4.618-2.557,19.447-1.728,20.1-1.728c0,0-7.3,1.66-9.659,2.246ZM84.992,24.705s-2.276-6.624-3.317-9.181-4.683-3.1-4.683-3.1L59.951,10.845s-8.65-.354-10.992-1.183A4.569,4.569,0,0,1,46.2,6.3H44.934l-.66-1.382L44.728,3.8a1.289,1.289,0,0,0,0-1.4L43.024,0h-.049l-1.7,2.371a1.394,1.394,0,0,0,0,1.451l.453,1.142L41.066,6.3H39.8a4.569,4.569,0,0,1-2.764,3.356c-2.342.829-10.992,1.244-10.992,1.244L9.008,12.451s-3.642.531-4.683,3.088-3.317,9.174-3.317,9.174L0,27.887a13.24,13.24,0,0,1,4.13-.97,16.353,16.353,0,0,1,3.187.414,6.843,6.843,0,0,1,5.008,3.318s4.813-2.9,8.39-3.52a34.927,34.927,0,0,1,7.8-.613,39.787,39.787,0,0,1,9.041,1.6,24.7,24.7,0,0,1,5.415,3.136h.049a24.7,24.7,0,0,1,5.415-3.136,39.872,39.872,0,0,1,9.041-1.482,34.154,34.154,0,0,1,7.8.555c3.577.622,8.39,3.491,8.39,3.491a6.869,6.869,0,0,1,5.008-3.333,16.213,16.213,0,0,1,3.187-.423,13.29,13.29,0,0,1,4.13.964Z" transform="translate(0 0)" fill-rule="evenodd"/>
          <path id="Path" d="M129.9,42.914a1.317,1.317,0,0,0-.392-.108,3.4,3.4,0,0,0-.433-.028h-1.021v1.481h.92c.141,0,.29.014.448,0a1.489,1.489,0,0,0,.428-.076.728.728,0,0,0,.317-.217.637.637,0,0,0,.126-.422.668.668,0,0,0-.111-.4.725.725,0,0,0-.282-.23" transform="translate(-76.086 -25.416)" fill-rule="evenodd"/>
          <path id="Path-2" data-name="Path" d="M111.091,42.8a2.076,2.076,0,0,0-.707-.465,2.63,2.63,0,0,0-1.841,0,2.073,2.073,0,0,0-.707.465,2.03,2.03,0,0,0-.453.71,2.609,2.609,0,0,0,0,1.787,2.037,2.037,0,0,0,.453.7,2.067,2.067,0,0,0,.707.465,2.629,2.629,0,0,0,1.841,0,2.07,2.07,0,0,0,.707-.465,2.042,2.042,0,0,0,.453-.7,2.611,2.611,0,0,0,0-1.787,2.035,2.035,0,0,0-.453-.71" transform="translate(-63.708 -25.053)" fill-rule="evenodd"/>
          <path id="Path-3" data-name="Path" d="M93.941,49.6a1.773,1.773,0,0,0-.422-.088A3.233,3.233,0,0,0,93.1,49.5h-1.19v1.487h1.416a1.916,1.916,0,0,0,.376-.036,1.037,1.037,0,0,0,.345-.131.782.782,0,0,0,.252-.246.667.667,0,0,0,.1-.369.561.561,0,0,0-.129-.383.816.816,0,0,0-.324-.222" transform="translate(-54.607 -29.411)" fill-rule="evenodd"/>
          <path id="Path-4" data-name="Path" d="M93.3,44.241a.9.9,0,0,0,.3-.123.656.656,0,0,0,.215-.238.75.75,0,0,0,.081-.36.682.682,0,0,0-.091-.366.646.646,0,0,0-.234-.226,1.077,1.077,0,0,0-.324-.115,1.852,1.852,0,0,0-.353-.035h-.988v1.488h1.055a1.427,1.427,0,0,0,.339-.025" transform="translate(-54.607 -25.416)" fill-rule="evenodd"/>
        </g>
      </g>
    </g>
  </g>
</svg>
