<svg xmlns="http://www.w3.org/2000/svg" width="3803.857" height="286.146" viewBox="0 0 3803.857 286.146">
  <path id="wave-haikei_1_" data-name="wave-haikei (1)" d="M0,525.369l44.49-5.96c44.49-6.219,133.469-18.139,222.448-17.361s177.958,14.77,266.937,30.317S711.833,565.014,800.812,575.9s177.958,15.029,266.937,14.77c88.979-.518,177.958-5.7,266.938-25.135s177.958-53.12,266.937-61.412c88.979-8.033,177.958,9.069,266.938,30.836,88.979,21.507,122.365,49.76,266.937,50.606s204.9-44.128,293.875-50.606,151.021,19.693,240,27.467,177.958,8.81,266.937-2.073,177.958-33.168,266.937-46.642,177.958-17.62,266.938-20.73,177.958-4.664,266.938,4.664c88.979,9.588,88.979,279.074,0,279.074H0Z" transform="translate(0 -490.571)" fill="#f2c0ff"/>
</svg>
