<svg id="Layer_1" data-name="Layer 1" xmlns="http://www.w3.org/2000/svg" viewBox="0 0 1920 58"><defs><style>.cls-1{fill:#fff;}</style></defs><path class="cls-1" d="M1920-.23V23.54l-26.67,4.23c-26.66,4.34-80,12.8-133.33,12.13s-106.67-10.8-160-9.46-106.67,13.91-160,16.14-106.67-6-160-6.12S1173.33,48,1120,51.36a872.89,872.89,0,0,1-160-4.23c-53.33-6.56-106.67-18.36-160-18.92s-106.67,10.13-160,9S533.33,23.21,480,20s-106.67,3.56-160,9.35S213.33,39.9,160,35.78s-106.67-17-133.33-23.6L0,5.73v-6Z"/></svg>